<?xml version="1.0" encoding="UTF-8"?>
<svg width="62px" height="176px" viewBox="0 0 62 176" version="1.1" xmlns="http://www.w3.org/2000/svg" xmlns:xlink="http://www.w3.org/1999/xlink">
    <!-- Generator: Sketch 51.3 (57544) - http://www.bohemiancoding.com/sketch -->
    <title>icons</title>
    <desc>Created with Sketch.</desc>
    <defs>
        <filter x="-34.4%" y="-125.4%" width="168.8%" height="350.8%" filterUnits="objectBoundingBox" id="filter-1">
            <feGaussianBlur stdDeviation="4.80747768" in="SourceGraphic"></feGaussianBlur>
        </filter>
        <rect id="path-2" x="0" y="0" width="41.948082" height="11.5008046" rx="5.75040232"></rect>
        <filter x="-7.2%" y="-26.1%" width="114.3%" height="152.2%" filterUnits="objectBoundingBox" id="filter-3">
            <feGaussianBlur stdDeviation="2" in="SourceAlpha" result="shadowBlurInner1"></feGaussianBlur>
            <feOffset dx="0" dy="2" in="shadowBlurInner1" result="shadowOffsetInner1"></feOffset>
            <feComposite in="shadowOffsetInner1" in2="SourceAlpha" operator="arithmetic" k2="-1" k3="1" result="shadowInnerInner1"></feComposite>
            <feColorMatrix values="0 0 0 0 0   0 0 0 0 0   0 0 0 0 0  0 0 0 0.5 0" type="matrix" in="shadowInnerInner1"></feColorMatrix>
        </filter>
    </defs>
    <g id="icons" stroke="none" stroke-width="1" fill="none" fill-rule="evenodd">
        <g id="webapp-info-close" transform="translate(11.000000, 124.000000)">
            <g id="Group-2" stroke-width="1" fill="#27356B">
                <circle id="Oval-2" cx="20" cy="20" r="20"></circle>
            </g>
            <polygon id="Path" fill="#FFFFFF" transform="translate(20.251178, 20.198042) rotate(-315.000000) translate(-20.251178, -20.198042) " points="21.5023558 31.3960846 19 31.3960846 19 9 21.5023558 9"></polygon>
            <polygon id="Path-Copy" fill="#FFFFFF" transform="translate(20.251178, 20.198042) rotate(-45.000000) translate(-20.251178, -20.198042) " points="21.5023558 31.3960846 19 31.3960846 19 9 21.5023558 9"></polygon>
        </g>
        <rect id="Rectangle" fill="#27356B" x="10" y="8" width="42" height="12" rx="6"></rect>
        <g id="webapp-info" transform="translate(10.000000, 73.000000)">
            <g id="Group-2">
                <circle id="Oval-2" fill="#27356B" cx="21" cy="21" r="21"></circle>
                <path d="M20.6759665,14.051933 C20.1431739,14.051933 19.7139863,13.8891377 19.3883908,13.5635422 C19.0627953,13.2379467 18.9,12.8087591 18.9,12.2759665 C18.9,11.7431739 19.0627953,11.3139863 19.3883908,10.9883908 C19.7139863,10.6627953 20.1431739,10.5 20.6759665,10.5 C21.2087591,10.5 21.6379467,10.6627953 21.9635422,10.9883908 C22.2891377,11.3139863 22.451933,11.7431739 22.451933,12.2759665 C22.451933,12.8087591 22.2891377,13.2379467 21.9635422,13.5635422 C21.6379467,13.8891377 21.2087591,14.051933 20.6759665,14.051933 Z M21.8599441,31.6932 L19.4919888,31.6932 L19.4919888,16.8934793 L21.8599441,16.8934793 L21.8599441,31.6932 Z" id="i" fill="#FFFFFF" transform="translate(20.675966, 21.096600) scale(-1, 1) translate(-20.675966, -21.096600) "></path>
            </g>
        </g>
        <g id="Group-3" transform="translate(10.000000, 39.000000)">
            <rect id="Rectangle" fill="#17C37B" filter="url(#filter-1)" x="0" y="0" width="41.948082" height="11.5008046" rx="5.75040232"></rect>
            <g id="Rectangle">
                <use fill="#17C37B" fill-rule="evenodd" xlink:href="#path-2"></use>
                <use fill="black" fill-opacity="1" filter="url(#filter-3)" xlink:href="#path-2"></use>
            </g>
        </g>
    </g>
</svg>